<svg xmlns="http://www.w3.org/2000/svg" xmlns:xlink="http://www.w3.org/1999/xlink" width="500" zoomAndPan="magnify" viewBox="0 0 375 374.999991" height="500" preserveAspectRatio="xMidYMid meet" version="1.0"><path fill="#1c486f" d="M 147.796875 95.351562 C 152.425781 95.351562 156.179688 91.597656 156.179688 86.96875 L 156.179688 70.742188 C 156.179688 49.75 173.28125 32.652344 194.339844 32.652344 C 215.398438 32.652344 232.496094 49.75 232.496094 70.742188 L 232.496094 86.96875 C 232.496094 91.597656 236.253906 95.351562 240.878906 95.351562 C 245.507812 95.351562 249.261719 91.597656 249.261719 86.96875 L 249.261719 73.023438 C 249.261719 43.714844 227.265625 17.964844 197.960938 16.019531 C 166.105469 13.941406 139.417969 39.289062 139.417969 70.742188 L 139.417969 86.96875 C 139.417969 91.597656 143.171875 95.351562 147.796875 95.351562 Z M 147.796875 95.351562 " fill-opacity="1" fill-rule="nonzero"/><path fill="#ef8121" d="M 324.101562 313.300781 L 305.660156 133.914062 C 304.1875 119.628906 292.183594 108.832031 277.832031 108.832031 L 110.847656 108.832031 C 96.496094 108.832031 84.492188 119.695312 83.015625 133.914062 L 78.390625 178.578125 C 75.304688 208.550781 103.804688 231.957031 132.574219 223.171875 L 148.199219 218.410156 C 165.972656 212.980469 185.824219 221.964844 192.796875 241.679688 C 195.210938 248.519531 194.875 256.03125 192.730469 263.007812 L 185.824219 285.539062 C 176.300781 316.65625 199.570312 348.109375 232.09375 348.109375 L 292.71875 348.109375 C 311.429688 348.039062 326.046875 331.878906 324.101562 313.300781 Z M 324.101562 313.300781 " fill-opacity="1" fill-rule="nonzero"/><path fill="#1c486f" d="M 154.101562 237.589844 L 63.769531 265.152344 C 50.625 269.175781 49.6875 287.417969 62.363281 292.78125 L 83.890625 301.835938 C 95.289062 306.664062 104.410156 315.71875 109.238281 327.183594 L 118.292969 348.710938 C 123.65625 361.386719 141.898438 360.445312 145.921875 347.300781 L 173.484375 256.972656 C 177.171875 245.101562 166.039062 233.96875 154.101562 237.589844 Z M 154.101562 237.589844 " fill-opacity="1" fill-rule="nonzero"/></svg>