<svg xmlns="http://www.w3.org/2000/svg" xmlns:xlink="http://www.w3.org/1999/xlink" width="500" zoomAndPan="magnify" viewBox="0 0 375 374.999991" height="500" preserveAspectRatio="xMidYMid meet" version="1.0"><defs><g/></defs><path fill="#1c486f" d="M 162.414062 68.1875 C 165.339844 68.1875 167.710938 65.816406 167.710938 62.894531 L 167.710938 52.640625 C 167.710938 39.382812 178.515625 28.578125 191.816406 28.578125 C 205.117188 28.578125 215.921875 39.382812 215.921875 52.640625 L 215.921875 62.894531 C 215.921875 65.816406 218.292969 68.1875 221.214844 68.1875 C 224.140625 68.1875 226.511719 65.816406 226.511719 62.894531 L 226.511719 54.082031 C 226.511719 35.570312 212.617188 19.300781 194.105469 18.070312 C 173.980469 16.757812 157.121094 32.773438 157.121094 52.640625 L 157.121094 62.894531 C 157.121094 65.816406 159.492188 68.1875 162.414062 68.1875 Z M 162.414062 68.1875 " fill-opacity="1" fill-rule="nonzero"/><path fill="#ef8121" d="M 273.789062 205.871094 L 262.140625 92.546875 C 261.207031 83.523438 253.625 76.703125 244.558594 76.703125 L 139.074219 76.703125 C 130.007812 76.703125 122.425781 83.566406 121.492188 92.546875 L 118.570312 120.761719 C 116.621094 139.699219 134.625 154.484375 152.800781 148.933594 L 162.667969 145.925781 C 173.894531 142.496094 186.4375 148.171875 190.839844 160.625 C 192.367188 164.949219 192.15625 169.691406 190.800781 174.097656 L 186.4375 188.332031 C 180.421875 207.988281 195.121094 227.859375 215.667969 227.859375 L 253.964844 227.859375 C 265.785156 227.816406 275.019531 217.605469 273.789062 205.871094 Z M 273.789062 205.871094 " fill-opacity="1" fill-rule="nonzero"/><path fill="#1c486f" d="M 166.398438 158.042969 L 109.332031 175.453125 C 101.03125 177.996094 100.4375 189.519531 108.445312 192.90625 L 122.042969 198.625 C 129.246094 201.675781 135.007812 207.394531 138.054688 214.640625 L 143.777344 228.238281 C 147.164062 236.246094 158.6875 235.652344 161.230469 227.351562 L 178.640625 170.285156 C 180.972656 162.789062 173.9375 155.753906 166.398438 158.042969 Z M 166.398438 158.042969 " fill-opacity="1" fill-rule="nonzero"/><g fill="#ef8121" fill-opacity="0.4"><g transform="translate(75.528457, 317.363186)"><g><path d="M 19.84375 0.65625 C 13.445312 0.65625 8.828125 -0.925781 5.984375 -4.09375 C 3.140625 -7.269531 1.71875 -12.382812 1.71875 -19.4375 L 1.71875 -26.328125 L 15.578125 -26.328125 L 15.578125 -17.546875 C 15.578125 -14.046875 16.703125 -12.296875 18.953125 -12.296875 C 20.203125 -12.296875 21.070312 -12.664062 21.5625 -13.40625 C 22.0625 -14.144531 22.3125 -15.390625 22.3125 -17.140625 C 22.3125 -19.429688 22.035156 -21.328125 21.484375 -22.828125 C 20.941406 -24.335938 20.242188 -25.597656 19.390625 -26.609375 C 18.546875 -27.617188 17.03125 -29.191406 14.84375 -31.328125 L 8.78125 -37.40625 C 4.070312 -41.988281 1.71875 -47.070312 1.71875 -52.65625 C 1.71875 -58.664062 3.097656 -63.242188 5.859375 -66.390625 C 8.617188 -69.535156 12.65625 -71.109375 17.96875 -71.109375 C 24.300781 -71.109375 28.863281 -69.425781 31.65625 -66.0625 C 34.445312 -62.695312 35.84375 -57.4375 35.84375 -50.28125 L 21.484375 -50.28125 L 21.40625 -55.109375 C 21.40625 -56.046875 21.144531 -56.785156 20.625 -57.328125 C 20.101562 -57.878906 19.378906 -58.15625 18.453125 -58.15625 C 17.359375 -58.15625 16.535156 -57.851562 15.984375 -57.25 C 15.441406 -56.644531 15.171875 -55.820312 15.171875 -54.78125 C 15.171875 -52.488281 16.484375 -50.113281 19.109375 -47.65625 L 27.3125 -39.78125 C 29.226562 -37.914062 30.8125 -36.148438 32.0625 -34.484375 C 33.320312 -32.816406 34.332031 -30.847656 35.09375 -28.578125 C 35.863281 -26.304688 36.25 -23.613281 36.25 -20.5 C 36.25 -13.5625 34.976562 -8.300781 32.4375 -4.71875 C 29.894531 -1.132812 25.695312 0.65625 19.84375 0.65625 Z M 19.84375 0.65625 "/></g></g></g><g fill="#ef8121" fill-opacity="0.4"><g transform="translate(113.331054, 317.363186)"><g><path d="M 15.25 0.65625 C 11.476562 0.65625 8.878906 -0.132812 7.453125 -1.71875 C 6.035156 -3.300781 5.328125 -5.84375 5.328125 -9.34375 L 5.328125 -46.828125 L 1.3125 -46.828125 L 1.3125 -57.734375 L 5.328125 -57.734375 L 5.328125 -70.453125 L 19.28125 -70.453125 L 19.28125 -57.734375 L 23.375 -57.734375 L 23.375 -46.828125 L 19.28125 -46.828125 L 19.28125 -13.125 C 19.28125 -12.082031 19.359375 -11.316406 19.515625 -10.828125 C 19.679688 -10.335938 20.117188 -10.09375 20.828125 -10.09375 C 21.378906 -10.09375 21.898438 -10.117188 22.390625 -10.171875 C 22.878906 -10.222656 23.207031 -10.25 23.375 -10.25 L 23.375 -0.40625 C 22.550781 -0.1875 21.359375 0.0390625 19.796875 0.28125 C 18.242188 0.53125 16.726562 0.65625 15.25 0.65625 Z M 15.25 0.65625 "/></g></g></g><g fill="#ef8121" fill-opacity="0.4"><g transform="translate(138.341454, 317.363186)"><g><path d="M 14.4375 0.65625 C 9.945312 0.65625 6.867188 -0.679688 5.203125 -3.359375 C 3.535156 -6.035156 2.703125 -10.03125 2.703125 -15.34375 L 2.703125 -60.03125 L 17.140625 -60.03125 L 17.140625 -18.203125 C 17.140625 -17.828125 17.140625 -16.800781 17.140625 -15.125 C 17.140625 -13.457031 17.398438 -12.28125 17.921875 -11.59375 C 18.441406 -10.914062 19.25 -10.578125 20.34375 -10.578125 C 21.8125 -10.578125 22.738281 -11.191406 23.125 -12.421875 C 23.507812 -13.648438 23.703125 -15.414062 23.703125 -17.71875 L 23.703125 -18.203125 L 23.78125 -60.03125 L 38.0625 -60.03125 L 38.0625 0 L 23.703125 0 L 23.703125 -6.390625 C 22.710938 -3.878906 21.5625 -2.078125 20.25 -0.984375 C 18.945312 0.109375 17.007812 0.65625 14.4375 0.65625 Z M 14.4375 0.65625 "/></g></g></g><g fill="#ef8121" fill-opacity="0.4"><g transform="translate(179.260091, 317.363186)"><g><path d="M 14.6875 0.65625 C 11.1875 0.65625 8.546875 -0.175781 6.765625 -1.84375 C 4.984375 -3.507812 3.804688 -5.722656 3.234375 -8.484375 C 2.660156 -11.242188 2.375 -14.785156 2.375 -19.109375 L 2.546875 -46.171875 C 2.546875 -50.441406 3.625 -53.925781 5.78125 -56.625 C 7.9375 -59.332031 10.984375 -60.6875 14.921875 -60.6875 C 18.804688 -60.6875 21.707031 -59.40625 23.625 -56.84375 L 23.625 -70.859375 L 37.96875 -70.859375 L 37.96875 0 L 23.625 0 L 23.625 -6.390625 C 22.800781 -4.046875 21.691406 -2.285156 20.296875 -1.109375 C 18.898438 0.0664062 17.03125 0.65625 14.6875 0.65625 Z M 20.171875 -10.578125 C 21.597656 -10.578125 22.53125 -11.273438 22.96875 -12.671875 C 23.40625 -14.066406 23.625 -15.941406 23.625 -18.296875 L 23.625 -43.390625 C 23.625 -45.140625 23.375 -46.613281 22.875 -47.8125 C 22.382812 -49.019531 21.515625 -49.625 20.265625 -49.625 C 18.835938 -49.625 17.890625 -49.0625 17.421875 -47.9375 C 16.960938 -46.8125 16.734375 -45.296875 16.734375 -43.390625 L 16.734375 -18.125 C 16.734375 -13.09375 17.878906 -10.578125 20.171875 -10.578125 Z M 20.171875 -10.578125 "/></g></g></g><g fill="#ef8121" fill-opacity="1"><g transform="translate(75.528457, 317.363186)"><g><path d="M 19.84375 0.65625 C 13.445312 0.65625 8.828125 -0.925781 5.984375 -4.09375 C 3.140625 -7.269531 1.71875 -12.382812 1.71875 -19.4375 L 1.71875 -26.328125 L 15.578125 -26.328125 L 15.578125 -17.546875 C 15.578125 -14.046875 16.703125 -12.296875 18.953125 -12.296875 C 20.203125 -12.296875 21.070312 -12.664062 21.5625 -13.40625 C 22.0625 -14.144531 22.3125 -15.390625 22.3125 -17.140625 C 22.3125 -19.429688 22.035156 -21.328125 21.484375 -22.828125 C 20.941406 -24.335938 20.242188 -25.597656 19.390625 -26.609375 C 18.546875 -27.617188 17.03125 -29.191406 14.84375 -31.328125 L 8.78125 -37.40625 C 4.070312 -41.988281 1.71875 -47.070312 1.71875 -52.65625 C 1.71875 -58.664062 3.097656 -63.242188 5.859375 -66.390625 C 8.617188 -69.535156 12.65625 -71.109375 17.96875 -71.109375 C 24.300781 -71.109375 28.863281 -69.425781 31.65625 -66.0625 C 34.445312 -62.695312 35.84375 -57.4375 35.84375 -50.28125 L 21.484375 -50.28125 L 21.40625 -55.109375 C 21.40625 -56.046875 21.144531 -56.785156 20.625 -57.328125 C 20.101562 -57.878906 19.378906 -58.15625 18.453125 -58.15625 C 17.359375 -58.15625 16.535156 -57.851562 15.984375 -57.25 C 15.441406 -56.644531 15.171875 -55.820312 15.171875 -54.78125 C 15.171875 -52.488281 16.484375 -50.113281 19.109375 -47.65625 L 27.3125 -39.78125 C 29.226562 -37.914062 30.8125 -36.148438 32.0625 -34.484375 C 33.320312 -32.816406 34.332031 -30.847656 35.09375 -28.578125 C 35.863281 -26.304688 36.25 -23.613281 36.25 -20.5 C 36.25 -13.5625 34.976562 -8.300781 32.4375 -4.71875 C 29.894531 -1.132812 25.695312 0.65625 19.84375 0.65625 Z M 19.84375 0.65625 "/></g></g></g><g fill="#ef8121" fill-opacity="1"><g transform="translate(113.331054, 317.363186)"><g><path d="M 15.25 0.65625 C 11.476562 0.65625 8.878906 -0.132812 7.453125 -1.71875 C 6.035156 -3.300781 5.328125 -5.84375 5.328125 -9.34375 L 5.328125 -46.828125 L 1.3125 -46.828125 L 1.3125 -57.734375 L 5.328125 -57.734375 L 5.328125 -70.453125 L 19.28125 -70.453125 L 19.28125 -57.734375 L 23.375 -57.734375 L 23.375 -46.828125 L 19.28125 -46.828125 L 19.28125 -13.125 C 19.28125 -12.082031 19.359375 -11.316406 19.515625 -10.828125 C 19.679688 -10.335938 20.117188 -10.09375 20.828125 -10.09375 C 21.378906 -10.09375 21.898438 -10.117188 22.390625 -10.171875 C 22.878906 -10.222656 23.207031 -10.25 23.375 -10.25 L 23.375 -0.40625 C 22.550781 -0.1875 21.359375 0.0390625 19.796875 0.28125 C 18.242188 0.53125 16.726562 0.65625 15.25 0.65625 Z M 15.25 0.65625 "/></g></g></g><g fill="#ef8121" fill-opacity="1"><g transform="translate(138.341454, 317.363186)"><g><path d="M 14.4375 0.65625 C 9.945312 0.65625 6.867188 -0.679688 5.203125 -3.359375 C 3.535156 -6.035156 2.703125 -10.03125 2.703125 -15.34375 L 2.703125 -60.03125 L 17.140625 -60.03125 L 17.140625 -18.203125 C 17.140625 -17.828125 17.140625 -16.800781 17.140625 -15.125 C 17.140625 -13.457031 17.398438 -12.28125 17.921875 -11.59375 C 18.441406 -10.914062 19.25 -10.578125 20.34375 -10.578125 C 21.8125 -10.578125 22.738281 -11.191406 23.125 -12.421875 C 23.507812 -13.648438 23.703125 -15.414062 23.703125 -17.71875 L 23.703125 -18.203125 L 23.78125 -60.03125 L 38.0625 -60.03125 L 38.0625 0 L 23.703125 0 L 23.703125 -6.390625 C 22.710938 -3.878906 21.5625 -2.078125 20.25 -0.984375 C 18.945312 0.109375 17.007812 0.65625 14.4375 0.65625 Z M 14.4375 0.65625 "/></g></g></g><g fill="#ef8121" fill-opacity="1"><g transform="translate(179.260091, 317.363186)"><g><path d="M 14.6875 0.65625 C 11.1875 0.65625 8.546875 -0.175781 6.765625 -1.84375 C 4.984375 -3.507812 3.804688 -5.722656 3.234375 -8.484375 C 2.660156 -11.242188 2.375 -14.785156 2.375 -19.109375 L 2.546875 -46.171875 C 2.546875 -50.441406 3.625 -53.925781 5.78125 -56.625 C 7.9375 -59.332031 10.984375 -60.6875 14.921875 -60.6875 C 18.804688 -60.6875 21.707031 -59.40625 23.625 -56.84375 L 23.625 -70.859375 L 37.96875 -70.859375 L 37.96875 0 L 23.625 0 L 23.625 -6.390625 C 22.800781 -4.046875 21.691406 -2.285156 20.296875 -1.109375 C 18.898438 0.0664062 17.03125 0.65625 14.6875 0.65625 Z M 20.171875 -10.578125 C 21.597656 -10.578125 22.53125 -11.273438 22.96875 -12.671875 C 23.40625 -14.066406 23.625 -15.941406 23.625 -18.296875 L 23.625 -43.390625 C 23.625 -45.140625 23.375 -46.613281 22.875 -47.8125 C 22.382812 -49.019531 21.515625 -49.625 20.265625 -49.625 C 18.835938 -49.625 17.890625 -49.0625 17.421875 -47.9375 C 16.960938 -46.8125 16.734375 -45.296875 16.734375 -43.390625 L 16.734375 -18.125 C 16.734375 -13.09375 17.878906 -10.578125 20.171875 -10.578125 Z M 20.171875 -10.578125 "/></g></g></g><g fill="#1c486f" fill-opacity="1"><g transform="translate(221.09003, 317.368958)"><g><path d="M 2.21875 0 L 2.21875 -11.96875 L 16.5625 -11.96875 L 16.5625 0 Z M 2.21875 0 "/></g></g></g><g fill="#1c486f" fill-opacity="1"><g transform="translate(239.868331, 317.368958)"><g><path d="M 2.78125 -64.046875 L 2.78125 -74.0625 L 17.140625 -74.0625 L 17.140625 -64.046875 Z M 2.78125 0 L 2.78125 -60.03125 L 17.140625 -60.03125 L 17.140625 0 Z M 2.78125 0 "/></g></g></g><g fill="#1c486f" fill-opacity="1"><g transform="translate(259.794639, 317.368958)"><g><path d="M 20.34375 0.65625 C 8.363281 0.65625 2.375 -5.550781 2.375 -17.96875 L 2.375 -42.078125 C 2.375 -47.765625 3.972656 -52.285156 7.171875 -55.640625 C 10.367188 -59.003906 14.757812 -60.6875 20.34375 -60.6875 C 25.914062 -60.6875 30.300781 -59.003906 33.5 -55.640625 C 36.695312 -52.285156 38.296875 -47.765625 38.296875 -42.078125 L 38.296875 -17.96875 C 38.296875 -5.550781 32.3125 0.65625 20.34375 0.65625 Z M 20.34375 -10.421875 C 21.488281 -10.421875 22.332031 -10.828125 22.875 -11.640625 C 23.425781 -12.460938 23.703125 -13.585938 23.703125 -15.015625 L 23.703125 -44.375 C 23.703125 -47.875 22.582031 -49.625 20.34375 -49.625 C 18.101562 -49.625 16.984375 -47.875 16.984375 -44.375 L 16.984375 -15.015625 C 16.984375 -13.585938 17.253906 -12.460938 17.796875 -11.640625 C 18.347656 -10.828125 19.195312 -10.421875 20.34375 -10.421875 Z M 20.34375 -10.421875 "/></g></g></g><g fill="#424141" fill-opacity="1"><g transform="translate(112.623256, 352.467254)"><g><path d="M 2.109375 0 L 2.109375 -14.453125 L 10.875 -14.453125 L 10.875 -12.75 L 3.921875 -12.75 L 3.921875 -8.1875 L 10.359375 -8.1875 L 10.359375 -6.515625 L 3.921875 -6.515625 L 3.921875 -1.6875 L 11.109375 -1.6875 L 11.109375 0 Z M 2.109375 0 "/></g></g></g><g fill="#424141" fill-opacity="1"><g transform="translate(125.070975, 352.467254)"><g><path d="M 1.59375 -4.421875 L 1.59375 -6.046875 L 7.890625 -6.046875 L 7.890625 -4.421875 Z M 1.59375 -4.421875 "/></g></g></g><g fill="#424141" fill-opacity="1"><g transform="translate(134.546097, 352.467254)"><g><path d="M 8.5 0.265625 C 7.445312 0.265625 6.472656 0.0820312 5.578125 -0.28125 C 4.679688 -0.65625 3.90625 -1.175781 3.25 -1.84375 C 2.59375 -2.507812 2.085938 -3.300781 1.734375 -4.21875 C 1.378906 -5.132812 1.203125 -6.132812 1.203125 -7.21875 C 1.203125 -8.3125 1.378906 -9.3125 1.734375 -10.21875 C 2.085938 -11.132812 2.59375 -11.925781 3.25 -12.59375 C 3.90625 -13.269531 4.679688 -13.789062 5.578125 -14.15625 C 6.472656 -14.53125 7.445312 -14.71875 8.5 -14.71875 C 9.644531 -14.71875 10.695312 -14.503906 11.65625 -14.078125 C 12.613281 -13.660156 13.429688 -13.0625 14.109375 -12.28125 C 14.785156 -11.507812 15.285156 -10.59375 15.609375 -9.53125 L 13.671875 -9.53125 C 13.296875 -10.582031 12.648438 -11.40625 11.734375 -12 C 10.816406 -12.601562 9.757812 -12.90625 8.5625 -12.90625 C 7.488281 -12.90625 6.539062 -12.660156 5.71875 -12.171875 C 4.894531 -11.691406 4.242188 -11.023438 3.765625 -10.171875 C 3.296875 -9.316406 3.0625 -8.332031 3.0625 -7.21875 C 3.0625 -6.101562 3.296875 -5.117188 3.765625 -4.265625 C 4.242188 -3.421875 4.894531 -2.753906 5.71875 -2.265625 C 6.539062 -1.785156 7.488281 -1.546875 8.5625 -1.546875 C 9.789062 -1.546875 10.878906 -1.863281 11.828125 -2.5 C 12.773438 -3.132812 13.4375 -3.992188 13.8125 -5.078125 L 15.734375 -5.078125 C 15.441406 -4.003906 14.945312 -3.066406 14.25 -2.265625 C 13.550781 -1.472656 12.710938 -0.851562 11.734375 -0.40625 C 10.753906 0.0390625 9.675781 0.265625 8.5 0.265625 Z M 8.5 0.265625 "/></g></g></g><g fill="#424141" fill-opacity="1"><g transform="translate(151.390774, 352.467254)"><g><path d="M 8.671875 0.265625 C 7.210938 0.265625 5.914062 -0.0507812 4.78125 -0.6875 C 3.65625 -1.332031 2.773438 -2.21875 2.140625 -3.34375 C 1.515625 -4.46875 1.203125 -5.757812 1.203125 -7.21875 C 1.203125 -8.695312 1.515625 -9.992188 2.140625 -11.109375 C 2.773438 -12.234375 3.65625 -13.113281 4.78125 -13.75 C 5.914062 -14.394531 7.210938 -14.71875 8.671875 -14.71875 C 10.140625 -14.71875 11.429688 -14.394531 12.546875 -13.75 C 13.671875 -13.113281 14.550781 -12.234375 15.1875 -11.109375 C 15.832031 -9.992188 16.15625 -8.695312 16.15625 -7.21875 C 16.15625 -5.757812 15.832031 -4.46875 15.1875 -3.34375 C 14.550781 -2.21875 13.671875 -1.332031 12.546875 -0.6875 C 11.429688 -0.0507812 10.140625 0.265625 8.671875 0.265625 Z M 3.0625 -7.21875 C 3.0625 -6.101562 3.296875 -5.117188 3.765625 -4.265625 C 4.242188 -3.421875 4.90625 -2.753906 5.75 -2.265625 C 6.59375 -1.785156 7.566406 -1.546875 8.671875 -1.546875 C 9.785156 -1.546875 10.757812 -1.785156 11.59375 -2.265625 C 12.4375 -2.753906 13.09375 -3.421875 13.5625 -4.265625 C 14.039062 -5.117188 14.28125 -6.101562 14.28125 -7.21875 C 14.28125 -8.351562 14.039062 -9.34375 13.5625 -10.1875 C 13.09375 -11.03125 12.4375 -11.691406 11.59375 -12.171875 C 10.757812 -12.660156 9.785156 -12.90625 8.671875 -12.90625 C 7.566406 -12.90625 6.59375 -12.660156 5.75 -12.171875 C 4.90625 -11.691406 4.242188 -11.03125 3.765625 -10.1875 C 3.296875 -9.34375 3.0625 -8.351562 3.0625 -7.21875 Z M 3.0625 -7.21875 "/></g></g></g><g fill="#424141" fill-opacity="1"><g transform="translate(168.730869, 352.467254)"><g><path d="M 2.109375 0 L 2.109375 -14.453125 L 3.796875 -14.453125 L 9.46875 -5.875 L 15.109375 -14.453125 L 16.796875 -14.453125 L 16.796875 0 L 14.984375 0 L 14.984375 -11.046875 L 10.203125 -3.84375 L 8.703125 -3.84375 L 3.921875 -11.0625 L 3.921875 0 Z M 2.109375 0 "/></g></g></g><g fill="#424141" fill-opacity="1"><g transform="translate(187.639833, 352.467254)"><g><path d="M 2.109375 0 L 2.109375 -14.453125 L 3.796875 -14.453125 L 9.46875 -5.875 L 15.109375 -14.453125 L 16.796875 -14.453125 L 16.796875 0 L 14.984375 0 L 14.984375 -11.046875 L 10.203125 -3.84375 L 8.703125 -3.84375 L 3.921875 -11.0625 L 3.921875 0 Z M 2.109375 0 "/></g></g></g><g fill="#424141" fill-opacity="1"><g transform="translate(206.548797, 352.467254)"><g><path d="M 2.109375 0 L 2.109375 -14.453125 L 10.875 -14.453125 L 10.875 -12.75 L 3.921875 -12.75 L 3.921875 -8.1875 L 10.359375 -8.1875 L 10.359375 -6.515625 L 3.921875 -6.515625 L 3.921875 -1.6875 L 11.109375 -1.6875 L 11.109375 0 Z M 2.109375 0 "/></g></g></g><g fill="#424141" fill-opacity="1"><g transform="translate(218.996516, 352.467254)"><g><path d="M 2.109375 0 L 2.109375 -14.453125 L 7.609375 -14.453125 C 8.617188 -14.453125 9.492188 -14.257812 10.234375 -13.875 C 10.984375 -13.5 11.5625 -12.96875 11.96875 -12.28125 C 12.382812 -11.59375 12.59375 -10.765625 12.59375 -9.796875 C 12.59375 -8.628906 12.289062 -7.664062 11.6875 -6.90625 C 11.082031 -6.144531 10.25 -5.628906 9.1875 -5.359375 L 12.8125 0 L 10.625 0 L 7.09375 -5.1875 L 3.921875 -5.1875 L 3.921875 0 Z M 3.921875 -6.921875 L 7.40625 -6.921875 C 8.46875 -6.921875 9.285156 -7.171875 9.859375 -7.671875 C 10.441406 -8.171875 10.734375 -8.878906 10.734375 -9.796875 C 10.734375 -10.722656 10.441406 -11.441406 9.859375 -11.953125 C 9.285156 -12.460938 8.46875 -12.71875 7.40625 -12.71875 L 3.921875 -12.71875 Z M 3.921875 -6.921875 "/></g></g></g><g fill="#424141" fill-opacity="1"><g transform="translate(233.054384, 352.467254)"><g><path d="M 8.5 0.265625 C 7.445312 0.265625 6.472656 0.0820312 5.578125 -0.28125 C 4.679688 -0.65625 3.90625 -1.175781 3.25 -1.84375 C 2.59375 -2.507812 2.085938 -3.300781 1.734375 -4.21875 C 1.378906 -5.132812 1.203125 -6.132812 1.203125 -7.21875 C 1.203125 -8.3125 1.378906 -9.3125 1.734375 -10.21875 C 2.085938 -11.132812 2.59375 -11.925781 3.25 -12.59375 C 3.90625 -13.269531 4.679688 -13.789062 5.578125 -14.15625 C 6.472656 -14.53125 7.445312 -14.71875 8.5 -14.71875 C 9.644531 -14.71875 10.695312 -14.503906 11.65625 -14.078125 C 12.613281 -13.660156 13.429688 -13.0625 14.109375 -12.28125 C 14.785156 -11.507812 15.285156 -10.59375 15.609375 -9.53125 L 13.671875 -9.53125 C 13.296875 -10.582031 12.648438 -11.40625 11.734375 -12 C 10.816406 -12.601562 9.757812 -12.90625 8.5625 -12.90625 C 7.488281 -12.90625 6.539062 -12.660156 5.71875 -12.171875 C 4.894531 -11.691406 4.242188 -11.023438 3.765625 -10.171875 C 3.296875 -9.316406 3.0625 -8.332031 3.0625 -7.21875 C 3.0625 -6.101562 3.296875 -5.117188 3.765625 -4.265625 C 4.242188 -3.421875 4.894531 -2.753906 5.71875 -2.265625 C 6.539062 -1.785156 7.488281 -1.546875 8.5625 -1.546875 C 9.789062 -1.546875 10.878906 -1.863281 11.828125 -2.5 C 12.773438 -3.132812 13.4375 -3.992188 13.8125 -5.078125 L 15.734375 -5.078125 C 15.441406 -4.003906 14.945312 -3.066406 14.25 -2.265625 C 13.550781 -1.472656 12.710938 -0.851562 11.734375 -0.40625 C 10.753906 0.0390625 9.675781 0.265625 8.5 0.265625 Z M 8.5 0.265625 "/></g></g></g><g fill="#424141" fill-opacity="1"><g transform="translate(249.899061, 352.467254)"><g><path d="M 2.109375 0 L 2.109375 -14.453125 L 10.875 -14.453125 L 10.875 -12.75 L 3.921875 -12.75 L 3.921875 -8.1875 L 10.359375 -8.1875 L 10.359375 -6.515625 L 3.921875 -6.515625 L 3.921875 -1.6875 L 11.109375 -1.6875 L 11.109375 0 Z M 2.109375 0 "/></g></g></g></svg>