<svg xmlns="http://www.w3.org/2000/svg" xmlns:xlink="http://www.w3.org/1999/xlink" width="500" zoomAndPan="magnify" viewBox="0 0 375 374.999991" height="500" preserveAspectRatio="xMidYMid meet" version="1.0"><defs><g/><clipPath id="5470613280"><path d="M 15 149 L 133.839844 149 L 133.839844 265 L 15 265 Z M 15 149 " clip-rule="nonzero"/></clipPath></defs><path fill="#1c486f" d="M 48.882812 143.464844 C 51.09375 143.464844 52.886719 141.671875 52.886719 139.460938 L 52.886719 131.707031 C 52.886719 121.675781 61.058594 113.503906 71.121094 113.503906 C 81.183594 113.503906 89.355469 121.675781 89.355469 131.707031 L 89.355469 139.460938 C 89.355469 141.671875 91.148438 143.464844 93.359375 143.464844 C 95.570312 143.464844 97.363281 141.671875 97.363281 139.460938 L 97.363281 132.796875 C 97.363281 118.792969 86.855469 106.488281 72.851562 105.558594 C 57.628906 104.5625 44.875 116.675781 44.875 131.707031 L 44.875 139.460938 C 44.875 141.671875 46.671875 143.464844 48.882812 143.464844 Z M 48.882812 143.464844 " fill-opacity="1" fill-rule="nonzero"/><g clip-path="url(#5470613280)"><path fill="#ef8121" d="M 133.125 247.609375 L 124.316406 161.890625 C 123.609375 155.066406 117.875 149.90625 111.015625 149.90625 L 31.226562 149.90625 C 24.367188 149.90625 18.632812 155.097656 17.925781 161.890625 L 15.714844 183.234375 C 14.242188 197.558594 27.859375 208.742188 41.609375 204.542969 L 49.074219 202.269531 C 57.566406 199.671875 67.050781 203.964844 70.382812 213.386719 C 71.539062 216.65625 71.378906 220.246094 70.351562 223.578125 L 67.050781 234.34375 C 62.5 249.214844 73.621094 264.242188 89.160156 264.242188 L 118.128906 264.242188 C 127.070312 264.210938 134.054688 256.488281 133.125 247.609375 Z M 133.125 247.609375 " fill-opacity="1" fill-rule="nonzero"/></g><path fill="#1c486f" d="M 51.894531 211.433594 L 8.730469 224.601562 C 2.449219 226.527344 2 235.242188 8.058594 237.804688 L 18.34375 242.132812 C 23.789062 244.4375 28.148438 248.765625 30.457031 254.242188 L 34.78125 264.53125 C 37.34375 270.585938 46.0625 270.136719 47.984375 263.855469 L 61.15625 220.691406 C 62.917969 215.019531 57.597656 209.703125 51.894531 211.433594 Z M 51.894531 211.433594 " fill-opacity="1" fill-rule="nonzero"/><g fill="#ef8121" fill-opacity="0.4"><g transform="translate(135.058212, 224.178512)"><g><path d="M 20.890625 0.6875 C 14.160156 0.6875 9.296875 -0.976562 6.296875 -4.3125 C 3.304688 -7.65625 1.8125 -13.039062 1.8125 -20.46875 L 1.8125 -27.71875 L 16.40625 -27.71875 L 16.40625 -18.484375 C 16.40625 -14.796875 17.585938 -12.953125 19.953125 -12.953125 C 21.273438 -12.953125 22.191406 -13.335938 22.703125 -14.109375 C 23.222656 -14.890625 23.484375 -16.203125 23.484375 -18.046875 C 23.484375 -20.460938 23.195312 -22.460938 22.625 -24.046875 C 22.050781 -25.628906 21.316406 -26.953125 20.421875 -28.015625 C 19.523438 -29.078125 17.925781 -30.734375 15.625 -32.984375 L 9.234375 -39.375 C 4.285156 -44.207031 1.8125 -49.5625 1.8125 -55.4375 C 1.8125 -61.769531 3.265625 -66.585938 6.171875 -69.890625 C 9.078125 -73.203125 13.320312 -74.859375 18.90625 -74.859375 C 25.582031 -74.859375 30.390625 -73.085938 33.328125 -69.546875 C 36.265625 -66.003906 37.734375 -60.460938 37.734375 -52.921875 L 22.625 -52.921875 L 22.53125 -58.015625 C 22.53125 -58.992188 22.253906 -59.769531 21.703125 -60.34375 C 21.160156 -60.925781 20.398438 -61.21875 19.421875 -61.21875 C 18.273438 -61.21875 17.410156 -60.898438 16.828125 -60.265625 C 16.253906 -59.628906 15.96875 -58.765625 15.96875 -57.671875 C 15.96875 -55.253906 17.351562 -52.753906 20.125 -50.171875 L 28.75 -41.875 C 30.769531 -39.914062 32.441406 -38.054688 33.765625 -36.296875 C 35.085938 -34.546875 36.148438 -32.472656 36.953125 -30.078125 C 37.753906 -27.691406 38.15625 -24.863281 38.15625 -21.59375 C 38.15625 -14.28125 36.816406 -8.738281 34.140625 -4.96875 C 31.472656 -1.195312 27.054688 0.6875 20.890625 0.6875 Z M 20.890625 0.6875 "/></g></g></g><g fill="#ef8121" fill-opacity="0.4"><g transform="translate(174.854125, 224.178512)"><g><path d="M 16.0625 0.6875 C 12.09375 0.6875 9.359375 -0.144531 7.859375 -1.8125 C 6.359375 -3.476562 5.609375 -6.15625 5.609375 -9.84375 L 5.609375 -49.296875 L 1.375 -49.296875 L 1.375 -60.78125 L 5.609375 -60.78125 L 5.609375 -74.171875 L 20.296875 -74.171875 L 20.296875 -60.78125 L 24.609375 -60.78125 L 24.609375 -49.296875 L 20.296875 -49.296875 L 20.296875 -13.8125 C 20.296875 -12.71875 20.378906 -11.910156 20.546875 -11.390625 C 20.722656 -10.878906 21.1875 -10.625 21.9375 -10.625 C 22.507812 -10.625 23.050781 -10.648438 23.5625 -10.703125 C 24.082031 -10.765625 24.429688 -10.796875 24.609375 -10.796875 L 24.609375 -0.4375 C 23.742188 -0.207031 22.488281 0.0351562 20.84375 0.296875 C 19.207031 0.554688 17.613281 0.6875 16.0625 0.6875 Z M 16.0625 0.6875 "/></g></g></g><g fill="#ef8121" fill-opacity="0.4"><g transform="translate(201.183313, 224.178512)"><g><path d="M 15.203125 0.6875 C 10.472656 0.6875 7.226562 -0.71875 5.46875 -3.53125 C 3.71875 -6.351562 2.84375 -10.554688 2.84375 -16.140625 L 2.84375 -63.203125 L 18.046875 -63.203125 L 18.046875 -19.171875 C 18.046875 -18.765625 18.046875 -17.679688 18.046875 -15.921875 C 18.046875 -14.171875 18.316406 -12.9375 18.859375 -12.21875 C 19.410156 -11.5 20.257812 -11.140625 21.40625 -11.140625 C 22.96875 -11.140625 23.945312 -11.785156 24.34375 -13.078125 C 24.75 -14.378906 24.953125 -16.238281 24.953125 -18.65625 L 24.953125 -19.171875 L 25.046875 -63.203125 L 40.0625 -63.203125 L 40.0625 0 L 24.953125 0 L 24.953125 -6.734375 C 23.921875 -4.085938 22.710938 -2.1875 21.328125 -1.03125 C 19.941406 0.113281 17.898438 0.6875 15.203125 0.6875 Z M 15.203125 0.6875 "/></g></g></g><g fill="#ef8121" fill-opacity="0.4"><g transform="translate(244.259575, 224.178512)"><g><path d="M 15.453125 0.6875 C 11.765625 0.6875 8.984375 -0.1875 7.109375 -1.9375 C 5.242188 -3.695312 4.007812 -6.03125 3.40625 -8.9375 C 2.800781 -11.84375 2.5 -15.570312 2.5 -20.125 L 2.671875 -48.609375 C 2.671875 -53.097656 3.804688 -56.765625 6.078125 -59.609375 C 8.359375 -62.460938 11.570312 -63.890625 15.71875 -63.890625 C 19.800781 -63.890625 22.847656 -62.539062 24.859375 -59.84375 L 24.859375 -74.59375 L 39.984375 -74.59375 L 39.984375 0 L 24.859375 0 L 24.859375 -6.734375 C 24.003906 -4.253906 22.84375 -2.394531 21.375 -1.15625 C 19.90625 0.0703125 17.929688 0.6875 15.453125 0.6875 Z M 21.234375 -11.140625 C 22.734375 -11.140625 23.710938 -11.875 24.171875 -13.34375 C 24.628906 -14.8125 24.859375 -16.78125 24.859375 -19.25 L 24.859375 -45.671875 C 24.859375 -47.515625 24.597656 -49.066406 24.078125 -50.328125 C 23.566406 -51.597656 22.648438 -52.234375 21.328125 -52.234375 C 19.828125 -52.234375 18.832031 -51.644531 18.34375 -50.46875 C 17.851562 -49.289062 17.609375 -47.691406 17.609375 -45.671875 L 17.609375 -19.078125 C 17.609375 -13.785156 18.816406 -11.140625 21.234375 -11.140625 Z M 21.234375 -11.140625 "/></g></g></g><g fill="#ef8121" fill-opacity="1"><g transform="translate(135.058212, 224.178512)"><g><path d="M 20.890625 0.6875 C 14.160156 0.6875 9.296875 -0.976562 6.296875 -4.3125 C 3.304688 -7.65625 1.8125 -13.039062 1.8125 -20.46875 L 1.8125 -27.71875 L 16.40625 -27.71875 L 16.40625 -18.484375 C 16.40625 -14.796875 17.585938 -12.953125 19.953125 -12.953125 C 21.273438 -12.953125 22.191406 -13.335938 22.703125 -14.109375 C 23.222656 -14.890625 23.484375 -16.203125 23.484375 -18.046875 C 23.484375 -20.460938 23.195312 -22.460938 22.625 -24.046875 C 22.050781 -25.628906 21.316406 -26.953125 20.421875 -28.015625 C 19.523438 -29.078125 17.925781 -30.734375 15.625 -32.984375 L 9.234375 -39.375 C 4.285156 -44.207031 1.8125 -49.5625 1.8125 -55.4375 C 1.8125 -61.769531 3.265625 -66.585938 6.171875 -69.890625 C 9.078125 -73.203125 13.320312 -74.859375 18.90625 -74.859375 C 25.582031 -74.859375 30.390625 -73.085938 33.328125 -69.546875 C 36.265625 -66.003906 37.734375 -60.460938 37.734375 -52.921875 L 22.625 -52.921875 L 22.53125 -58.015625 C 22.53125 -58.992188 22.253906 -59.769531 21.703125 -60.34375 C 21.160156 -60.925781 20.398438 -61.21875 19.421875 -61.21875 C 18.273438 -61.21875 17.410156 -60.898438 16.828125 -60.265625 C 16.253906 -59.628906 15.96875 -58.765625 15.96875 -57.671875 C 15.96875 -55.253906 17.351562 -52.753906 20.125 -50.171875 L 28.75 -41.875 C 30.769531 -39.914062 32.441406 -38.054688 33.765625 -36.296875 C 35.085938 -34.546875 36.148438 -32.472656 36.953125 -30.078125 C 37.753906 -27.691406 38.15625 -24.863281 38.15625 -21.59375 C 38.15625 -14.28125 36.816406 -8.738281 34.140625 -4.96875 C 31.472656 -1.195312 27.054688 0.6875 20.890625 0.6875 Z M 20.890625 0.6875 "/></g></g></g><g fill="#ef8121" fill-opacity="1"><g transform="translate(174.854125, 224.178512)"><g><path d="M 16.0625 0.6875 C 12.09375 0.6875 9.359375 -0.144531 7.859375 -1.8125 C 6.359375 -3.476562 5.609375 -6.15625 5.609375 -9.84375 L 5.609375 -49.296875 L 1.375 -49.296875 L 1.375 -60.78125 L 5.609375 -60.78125 L 5.609375 -74.171875 L 20.296875 -74.171875 L 20.296875 -60.78125 L 24.609375 -60.78125 L 24.609375 -49.296875 L 20.296875 -49.296875 L 20.296875 -13.8125 C 20.296875 -12.71875 20.378906 -11.910156 20.546875 -11.390625 C 20.722656 -10.878906 21.1875 -10.625 21.9375 -10.625 C 22.507812 -10.625 23.050781 -10.648438 23.5625 -10.703125 C 24.082031 -10.765625 24.429688 -10.796875 24.609375 -10.796875 L 24.609375 -0.4375 C 23.742188 -0.207031 22.488281 0.0351562 20.84375 0.296875 C 19.207031 0.554688 17.613281 0.6875 16.0625 0.6875 Z M 16.0625 0.6875 "/></g></g></g><g fill="#ef8121" fill-opacity="1"><g transform="translate(201.183313, 224.178512)"><g><path d="M 15.203125 0.6875 C 10.472656 0.6875 7.226562 -0.71875 5.46875 -3.53125 C 3.71875 -6.351562 2.84375 -10.554688 2.84375 -16.140625 L 2.84375 -63.203125 L 18.046875 -63.203125 L 18.046875 -19.171875 C 18.046875 -18.765625 18.046875 -17.679688 18.046875 -15.921875 C 18.046875 -14.171875 18.316406 -12.9375 18.859375 -12.21875 C 19.410156 -11.5 20.257812 -11.140625 21.40625 -11.140625 C 22.96875 -11.140625 23.945312 -11.785156 24.34375 -13.078125 C 24.75 -14.378906 24.953125 -16.238281 24.953125 -18.65625 L 24.953125 -19.171875 L 25.046875 -63.203125 L 40.0625 -63.203125 L 40.0625 0 L 24.953125 0 L 24.953125 -6.734375 C 23.921875 -4.085938 22.710938 -2.1875 21.328125 -1.03125 C 19.941406 0.113281 17.898438 0.6875 15.203125 0.6875 Z M 15.203125 0.6875 "/></g></g></g><g fill="#ef8121" fill-opacity="1"><g transform="translate(244.259575, 224.178512)"><g><path d="M 15.453125 0.6875 C 11.765625 0.6875 8.984375 -0.1875 7.109375 -1.9375 C 5.242188 -3.695312 4.007812 -6.03125 3.40625 -8.9375 C 2.800781 -11.84375 2.5 -15.570312 2.5 -20.125 L 2.671875 -48.609375 C 2.671875 -53.097656 3.804688 -56.765625 6.078125 -59.609375 C 8.359375 -62.460938 11.570312 -63.890625 15.71875 -63.890625 C 19.800781 -63.890625 22.847656 -62.539062 24.859375 -59.84375 L 24.859375 -74.59375 L 39.984375 -74.59375 L 39.984375 0 L 24.859375 0 L 24.859375 -6.734375 C 24.003906 -4.253906 22.84375 -2.394531 21.375 -1.15625 C 19.90625 0.0703125 17.929688 0.6875 15.453125 0.6875 Z M 21.234375 -11.140625 C 22.734375 -11.140625 23.710938 -11.875 24.171875 -13.34375 C 24.628906 -14.8125 24.859375 -16.78125 24.859375 -19.25 L 24.859375 -45.671875 C 24.859375 -47.515625 24.597656 -49.066406 24.078125 -50.328125 C 23.566406 -51.597656 22.648438 -52.234375 21.328125 -52.234375 C 19.828125 -52.234375 18.832031 -51.644531 18.34375 -50.46875 C 17.851562 -49.289062 17.609375 -47.691406 17.609375 -45.671875 L 17.609375 -19.078125 C 17.609375 -13.785156 18.816406 -11.140625 21.234375 -11.140625 Z M 21.234375 -11.140625 "/></g></g></g><g fill="#1c486f" fill-opacity="1"><g transform="translate(288.29521, 224.184577)"><g><path d="M 2.328125 0 L 2.328125 -12.609375 L 17.4375 -12.609375 L 17.4375 0 Z M 2.328125 0 "/></g></g></g><g fill="#1c486f" fill-opacity="1"><g transform="translate(308.063683, 224.184577)"><g><path d="M 2.9375 -67.4375 L 2.9375 -77.96875 L 18.046875 -77.96875 L 18.046875 -67.4375 Z M 2.9375 0 L 2.9375 -63.203125 L 18.046875 -63.203125 L 18.046875 0 Z M 2.9375 0 "/></g></g></g><g fill="#1c486f" fill-opacity="1"><g transform="translate(329.040698, 224.184577)"><g><path d="M 21.40625 0.6875 C 8.800781 0.6875 2.5 -5.84375 2.5 -18.90625 L 2.5 -44.296875 C 2.5 -50.285156 4.179688 -55.046875 7.546875 -58.578125 C 10.921875 -62.117188 15.539062 -63.890625 21.40625 -63.890625 C 27.28125 -63.890625 31.898438 -62.117188 35.265625 -58.578125 C 38.640625 -55.046875 40.328125 -50.285156 40.328125 -44.296875 L 40.328125 -18.90625 C 40.328125 -5.84375 34.019531 0.6875 21.40625 0.6875 Z M 21.40625 -10.96875 C 22.613281 -10.96875 23.503906 -11.398438 24.078125 -12.265625 C 24.660156 -13.128906 24.953125 -14.304688 24.953125 -15.796875 L 24.953125 -46.71875 C 24.953125 -50.394531 23.769531 -52.234375 21.40625 -52.234375 C 19.050781 -52.234375 17.875 -50.394531 17.875 -46.71875 L 17.875 -15.796875 C 17.875 -14.304688 18.160156 -13.128906 18.734375 -12.265625 C 19.304688 -11.398438 20.195312 -10.96875 21.40625 -10.96875 Z M 21.40625 -10.96875 "/></g></g></g><g fill="#424141" fill-opacity="1"><g transform="translate(145.399229, 257.557132)"><g><path d="M 2.453125 0 L 2.453125 -20.5 L 15.921875 -20.5 L 15.921875 -16.578125 L 7.09375 -16.578125 L 7.09375 -12.328125 L 15.140625 -12.328125 L 15.140625 -8.4375 L 7.09375 -8.4375 L 7.09375 -3.953125 L 16.25 -3.953125 L 16.25 0 Z M 2.453125 0 "/></g></g></g><g fill="#424141" fill-opacity="1"><g transform="translate(163.137841, 257.557132)"><g><path d="M 1.9375 -5.703125 L 1.9375 -9.046875 L 11.453125 -9.046875 L 11.453125 -5.703125 Z M 1.9375 -5.703125 "/></g></g></g><g fill="#424141" fill-opacity="1"><g transform="translate(176.544257, 257.557132)"><g><path d="M 11.859375 0.40625 C 9.785156 0.40625 7.945312 -0.046875 6.34375 -0.953125 C 4.75 -1.859375 3.503906 -3.109375 2.609375 -4.703125 C 1.710938 -6.304688 1.265625 -8.15625 1.265625 -10.25 C 1.265625 -12.332031 1.710938 -14.175781 2.609375 -15.78125 C 3.503906 -17.382812 4.742188 -18.640625 6.328125 -19.546875 C 7.921875 -20.453125 9.753906 -20.90625 11.828125 -20.90625 C 13.566406 -20.90625 15.15625 -20.570312 16.59375 -19.90625 C 18.039062 -19.25 19.257812 -18.3125 20.25 -17.09375 C 21.238281 -15.882812 21.925781 -14.460938 22.3125 -12.828125 L 17.515625 -12.828125 C 17.117188 -13.960938 16.421875 -14.851562 15.421875 -15.5 C 14.429688 -16.15625 13.28125 -16.484375 11.96875 -16.484375 C 10.820312 -16.484375 9.796875 -16.21875 8.890625 -15.6875 C 7.984375 -15.164062 7.273438 -14.4375 6.765625 -13.5 C 6.253906 -12.5625 6 -11.476562 6 -10.25 C 6 -9.019531 6.253906 -7.9375 6.765625 -7 C 7.273438 -6.0625 7.976562 -5.328125 8.875 -4.796875 C 9.769531 -4.273438 10.796875 -4.015625 11.953125 -4.015625 C 13.296875 -4.015625 14.472656 -4.359375 15.484375 -5.046875 C 16.503906 -5.742188 17.226562 -6.675781 17.65625 -7.84375 L 22.453125 -7.84375 C 22.117188 -6.1875 21.453125 -4.738281 20.453125 -3.5 C 19.460938 -2.257812 18.226562 -1.296875 16.75 -0.609375 C 15.28125 0.0664062 13.648438 0.40625 11.859375 0.40625 Z M 11.859375 0.40625 "/></g></g></g><g fill="#424141" fill-opacity="1"><g transform="translate(200.166462, 257.557132)"><g><path d="M 12.1875 0.40625 C 10.050781 0.40625 8.160156 -0.046875 6.515625 -0.953125 C 4.867188 -1.859375 3.582031 -3.109375 2.65625 -4.703125 C 1.726562 -6.304688 1.265625 -8.15625 1.265625 -10.25 C 1.265625 -12.332031 1.726562 -14.175781 2.65625 -15.78125 C 3.582031 -17.382812 4.867188 -18.640625 6.515625 -19.546875 C 8.160156 -20.453125 10.050781 -20.90625 12.1875 -20.90625 C 14.332031 -20.90625 16.222656 -20.453125 17.859375 -19.546875 C 19.503906 -18.640625 20.789062 -17.382812 21.71875 -15.78125 C 22.65625 -14.175781 23.125 -12.332031 23.125 -10.25 C 23.125 -8.15625 22.65625 -6.304688 21.71875 -4.703125 C 20.789062 -3.109375 19.503906 -1.859375 17.859375 -0.953125 C 16.222656 -0.046875 14.332031 0.40625 12.1875 0.40625 Z M 6 -10.25 C 6 -9.019531 6.257812 -7.9375 6.78125 -7 C 7.3125 -6.0625 8.039062 -5.328125 8.96875 -4.796875 C 9.894531 -4.273438 10.96875 -4.015625 12.1875 -4.015625 C 13.414062 -4.015625 14.492188 -4.273438 15.421875 -4.796875 C 16.347656 -5.328125 17.066406 -6.0625 17.578125 -7 C 18.097656 -7.9375 18.359375 -9.019531 18.359375 -10.25 C 18.359375 -11.476562 18.097656 -12.5625 17.578125 -13.5 C 17.066406 -14.4375 16.347656 -15.164062 15.421875 -15.6875 C 14.492188 -16.21875 13.414062 -16.484375 12.1875 -16.484375 C 10.96875 -16.484375 9.894531 -16.21875 8.96875 -15.6875 C 8.039062 -15.164062 7.3125 -14.4375 6.78125 -13.5 C 6.257812 -12.5625 6 -11.476562 6 -10.25 Z M 6 -10.25 "/></g></g></g><g fill="#424141" fill-opacity="1"><g transform="translate(224.549731, 257.557132)"><g><path d="M 2.453125 0 L 2.453125 -20.5 L 6.40625 -20.5 L 13.703125 -9.875 L 20.96875 -20.5 L 24.890625 -20.5 L 24.890625 0 L 20.265625 0 L 20.265625 -12.328125 L 15.28125 -5.0625 L 12.0625 -5.0625 L 7.09375 -12.359375 L 7.09375 0 Z M 2.453125 0 "/></g></g></g><g fill="#424141" fill-opacity="1"><g transform="translate(251.889438, 257.557132)"><g><path d="M 2.453125 0 L 2.453125 -20.5 L 6.40625 -20.5 L 13.703125 -9.875 L 20.96875 -20.5 L 24.890625 -20.5 L 24.890625 0 L 20.265625 0 L 20.265625 -12.328125 L 15.28125 -5.0625 L 12.0625 -5.0625 L 7.09375 -12.359375 L 7.09375 0 Z M 2.453125 0 "/></g></g></g><g fill="#424141" fill-opacity="1"><g transform="translate(279.229145, 257.557132)"><g><path d="M 2.453125 0 L 2.453125 -20.5 L 15.921875 -20.5 L 15.921875 -16.578125 L 7.09375 -16.578125 L 7.09375 -12.328125 L 15.140625 -12.328125 L 15.140625 -8.4375 L 7.09375 -8.4375 L 7.09375 -3.953125 L 16.25 -3.953125 L 16.25 0 Z M 2.453125 0 "/></g></g></g><g fill="#424141" fill-opacity="1"><g transform="translate(296.967757, 257.557132)"><g><path d="M 2.453125 0 L 2.453125 -20.5 L 11.21875 -20.5 C 12.78125 -20.5 14.132812 -20.210938 15.28125 -19.640625 C 16.4375 -19.078125 17.328125 -18.269531 17.953125 -17.21875 C 18.578125 -16.164062 18.890625 -14.90625 18.890625 -13.4375 C 18.890625 -11.9375 18.546875 -10.644531 17.859375 -9.5625 C 17.179688 -8.476562 16.222656 -7.660156 14.984375 -7.109375 L 19.234375 0 L 13.84375 0 L 10.1875 -6.390625 L 7.109375 -6.390625 L 7.109375 0 Z M 7.0625 -10.3125 L 10.59375 -10.3125 C 11.75 -10.3125 12.632812 -10.578125 13.25 -11.109375 C 13.863281 -11.648438 14.171875 -12.414062 14.171875 -13.40625 C 14.171875 -14.40625 13.863281 -15.171875 13.25 -15.703125 C 12.632812 -16.242188 11.75 -16.515625 10.59375 -16.515625 L 7.0625 -16.515625 Z M 7.0625 -10.3125 "/></g></g></g><g fill="#424141" fill-opacity="1"><g transform="translate(317.574989, 257.557132)"><g><path d="M 11.859375 0.40625 C 9.785156 0.40625 7.945312 -0.046875 6.34375 -0.953125 C 4.75 -1.859375 3.503906 -3.109375 2.609375 -4.703125 C 1.710938 -6.304688 1.265625 -8.15625 1.265625 -10.25 C 1.265625 -12.332031 1.710938 -14.175781 2.609375 -15.78125 C 3.503906 -17.382812 4.742188 -18.640625 6.328125 -19.546875 C 7.921875 -20.453125 9.753906 -20.90625 11.828125 -20.90625 C 13.566406 -20.90625 15.15625 -20.570312 16.59375 -19.90625 C 18.039062 -19.25 19.257812 -18.3125 20.25 -17.09375 C 21.238281 -15.882812 21.925781 -14.460938 22.3125 -12.828125 L 17.515625 -12.828125 C 17.117188 -13.960938 16.421875 -14.851562 15.421875 -15.5 C 14.429688 -16.15625 13.28125 -16.484375 11.96875 -16.484375 C 10.820312 -16.484375 9.796875 -16.21875 8.890625 -15.6875 C 7.984375 -15.164062 7.273438 -14.4375 6.765625 -13.5 C 6.253906 -12.5625 6 -11.476562 6 -10.25 C 6 -9.019531 6.253906 -7.9375 6.765625 -7 C 7.273438 -6.0625 7.976562 -5.328125 8.875 -4.796875 C 9.769531 -4.273438 10.796875 -4.015625 11.953125 -4.015625 C 13.296875 -4.015625 14.472656 -4.359375 15.484375 -5.046875 C 16.503906 -5.742188 17.226562 -6.675781 17.65625 -7.84375 L 22.453125 -7.84375 C 22.117188 -6.1875 21.453125 -4.738281 20.453125 -3.5 C 19.460938 -2.257812 18.226562 -1.296875 16.75 -0.609375 C 15.28125 0.0664062 13.648438 0.40625 11.859375 0.40625 Z M 11.859375 0.40625 "/></g></g></g><g fill="#424141" fill-opacity="1"><g transform="translate(341.197195, 257.557132)"><g><path d="M 2.453125 0 L 2.453125 -20.5 L 15.921875 -20.5 L 15.921875 -16.578125 L 7.09375 -16.578125 L 7.09375 -12.328125 L 15.140625 -12.328125 L 15.140625 -8.4375 L 7.09375 -8.4375 L 7.09375 -3.953125 L 16.25 -3.953125 L 16.25 0 Z M 2.453125 0 "/></g></g></g></svg>